<svg width="32" height="32" viewBox="0 0 32 32" fill="none" xmlns="http://www.w3.org/2000/svg">
<path d="M6.66669 17.0128C6.66669 15.2025 6.66669 14.2973 7.03264 13.5017C7.39858 12.706 8.08584 12.1169 9.46036 10.9388L10.7937 9.79591C13.2781 7.66641 14.5203 6.60165 16 6.60165C17.4797 6.60165 18.7219 7.66641 21.2064 9.79591L22.5397 10.9388C23.9142 12.1169 24.6015 12.706 24.9674 13.5017C25.3334 14.2973 25.3334 15.2025 25.3334 17.0128V22.6667C25.3334 25.1808 25.3334 26.4379 24.5523 27.219C23.7713 28 22.5142 28 20 28H12C9.48586 28 8.22878 28 7.44774 27.219C6.66669 26.4379 6.66669 25.1808 6.66669 22.6667V17.0128Z" stroke="#8E622A" stroke-width="2"/>
<path d="M19.3334 28V21C19.3334 20.4477 18.8856 20 18.3334 20H13.6667C13.1144 20 12.6667 20.4477 12.6667 21V28" stroke="#8E622A" stroke-width="2" stroke-linecap="round" stroke-linejoin="round"/>
</svg>
