<svg width="16" height="16" viewBox="0 0 16 16" fill="none" xmlns="http://www.w3.org/2000/svg">
<path d="M7.09886 12.3154L6.39176 11.6083L7.09886 12.3154L11.7071 7.70711C11.7264 7.68785 11.7463 7.66814 11.7666 7.64797C11.9737 7.44243 12.2284 7.1896 12.3779 6.88803L11.5913 6.49826L12.3779 6.88803C12.6551 6.32848 12.6551 5.67152 12.3779 5.11197L11.4818 5.55598L12.3779 5.11197C12.2284 4.81039 11.9737 4.55756 11.7666 4.35202C11.7463 4.33186 11.7264 4.31215 11.7071 4.29289C11.6879 4.27364 11.6682 4.25378 11.648 4.23346C11.4425 4.02636 11.1896 3.77162 10.8881 3.62218C10.3285 3.34489 9.67156 3.34489 9.11201 3.62218C8.81044 3.77162 8.55761 4.02636 8.35207 4.23346C8.3319 4.25378 8.31219 4.27364 8.29293 4.29289L3.68465 8.90118C3.67157 8.91425 3.65809 8.92765 3.64428 8.94138C3.49211 9.09263 3.29949 9.28409 3.1626 9.52585C3.02572 9.76762 2.96065 10.0313 2.90925 10.2396C2.90458 10.2585 2.90003 10.277 2.89554 10.2949L2.56534 11.6157C2.56254 11.6269 2.55962 11.6385 2.5566 11.6505C2.51978 11.797 2.46878 11.9999 2.45121 12.1795C2.43099 12.3862 2.4243 12.8382 2.79308 13.207C3.16186 13.5757 3.61382 13.5691 3.82051 13.5488C4.00013 13.5313 4.20304 13.4803 4.34953 13.4434C4.36153 13.4404 4.37316 13.4375 4.38436 13.4347L5.70515 13.1045C5.72309 13.1 5.74154 13.0955 5.76045 13.0908C5.96875 13.0394 6.23242 12.9743 6.47419 12.8374C6.71595 12.7006 6.9074 12.5079 7.05865 12.3558C7.07238 12.342 7.08578 12.3285 7.09886 12.3154Z" stroke="#102C57" stroke-width="2"/>
<path d="M8.33337 5.00001L10.3334 3.66667L12.3334 5.66667L11 7.66667L8.33337 5.00001Z" fill="#102C57"/>
</svg>
