<svg width="32" height="32" viewBox="0 0 32 32" fill="none" xmlns="http://www.w3.org/2000/svg">
<path d="M6 22.6667H12C12.93 22.6667 13.395 22.6667 13.7765 22.7689C14.8117 23.0463 15.6204 23.8549 15.8978 24.8902C16 25.2717 16 25.7367 16 26.6667V11.3333C16 8.50492 16 7.0907 15.1213 6.21202C14.2426 5.33334 12.8284 5.33334 10 5.33334H6C5.05719 5.33334 4.58579 5.33334 4.29289 5.62624C4 5.91913 4 6.39053 4 7.33334V20.6667C4 21.6095 4 22.0809 4.29289 22.3738C4.58579 22.6667 5.05719 22.6667 6 22.6667Z" stroke="#495A75" stroke-width="2"/>
<path d="M26 22.6667H20C19.07 22.6667 18.605 22.6667 18.2235 22.7689C17.1883 23.0463 16.3796 23.8549 16.1022 24.8902C16 25.2717 16 25.7367 16 26.6667V11.3333C16 8.50492 16 7.0907 16.8787 6.21202C17.7574 5.33334 19.1716 5.33334 22 5.33334H26C26.9428 5.33334 27.4142 5.33334 27.7071 5.62624C28 5.91913 28 6.39053 28 7.33334V20.6667C28 21.6095 28 22.0809 27.7071 22.3738C27.4142 22.6667 26.9428 22.6667 26 22.6667Z" stroke="#495A75" stroke-width="2"/>
</svg>
