<svg width="32" height="32" viewBox="0 0 32 32" fill="none" xmlns="http://www.w3.org/2000/svg">
<path d="M5.33334 5.33334H7.77179C8.52174 5.33334 8.89672 5.33334 9.16798 5.54514C9.43924 5.75693 9.53019 6.12071 9.71208 6.84827L10.0199 8.07963C10.2759 9.10349 10.4039 9.61542 10.7169 9.97658C10.8866 10.1724 11.0928 10.3334 11.324 10.4506C11.7503 10.6667 12.278 10.6667 13.3333 10.6667V10.6667" stroke="#495A75" stroke-width="2" stroke-linecap="round"/>
<path d="M24 22.6667H10.0679C9.45671 22.6667 9.15112 22.6667 8.93982 22.5609C8.64666 22.4141 8.44405 22.133 8.39754 21.8085C8.36402 21.5746 8.46065 21.2847 8.65392 20.7049V20.7049C8.86804 20.0625 8.97511 19.7413 9.15649 19.4915C9.40793 19.1453 9.76379 18.8888 10.1718 18.7597C10.4661 18.6667 10.8047 18.6667 11.4818 18.6667H18.6667" stroke="#495A75" stroke-width="2" stroke-linecap="round" stroke-linejoin="round"/>
<path d="M20.1945 18.6667H14.0552C12.4368 18.6667 11.6277 18.6667 11.0682 18.1927C10.5087 17.7187 10.3757 16.9206 10.1096 15.3243L9.91554 14.1599C9.64529 12.5383 9.51016 11.7275 9.9595 11.1971C10.4089 10.6667 11.2308 10.6667 12.8747 10.6667H23.4306C24.881 10.6667 25.6062 10.6667 25.8993 11.1409C26.1924 11.6152 25.8681 12.2638 25.2195 13.5611L23.7723 16.4555C23.2343 17.5313 22.9654 18.0693 22.4821 18.368C21.9988 18.6667 21.3974 18.6667 20.1945 18.6667Z" stroke="#495A75" stroke-width="2" stroke-linecap="round"/>
<circle cx="22.6667" cy="26.6667" r="1.33333" fill="#495A75"/>
<circle cx="12" cy="26.6667" r="1.33333" fill="#495A75"/>
</svg>
