<svg width="17" height="17" viewBox="0 0 17 17" fill="none" xmlns="http://www.w3.org/2000/svg">
<path d="M7.08331 10.625L7.08331 8.5" stroke="#102C57" stroke-width="2" stroke-linecap="round"/>
<path d="M9.91669 10.625L9.91669 8.5" stroke="#102C57" stroke-width="2" stroke-linecap="round"/>
<path d="M2.125 4.95833H14.875V4.95833C14.7589 4.95833 14.7009 4.95833 14.6519 4.96074C13.6245 5.01121 12.8029 5.83279 12.7524 6.86019C12.75 6.90923 12.75 6.96726 12.75 7.08333V10.1667C12.75 12.0523 12.75 12.9951 12.1642 13.5809C11.5784 14.1667 10.6356 14.1667 8.75 14.1667H8.25C6.36438 14.1667 5.42157 14.1667 4.83579 13.5809C4.25 12.9951 4.25 12.0523 4.25 10.1667V7.08333C4.25 6.96726 4.25 6.90923 4.24759 6.86019C4.19712 5.83279 3.37554 5.01121 2.34814 4.96074C2.2991 4.95833 2.24106 4.95833 2.125 4.95833V4.95833Z" stroke="#102C57" stroke-width="2" stroke-linecap="round"/>
<path d="M7.13163 2.3875C7.21234 2.31219 7.3902 2.24565 7.63761 2.19819C7.88502 2.15073 8.18816 2.125 8.50002 2.125C8.81188 2.125 9.11502 2.15073 9.36243 2.19819C9.60984 2.24565 9.7877 2.31219 9.86842 2.3875" stroke="#102C57" stroke-width="2" stroke-linecap="round"/>
</svg>
